<svg xmlns="http://www.w3.org/2000/svg" viewBox="0 0 199.13 273.59"><g id="Layer_2" data-name="Layer 2"><g id="Ñëîé_1" data-name="Ñëîé 1"><path d="M101.49,149.33c-.43,0-.86,0-1.3-.07a13.86,13.86,0,0,1-12.53-15.08l6.19-66.82a13.86,13.86,0,0,1,27.61,2.55l-6.18,66.83A13.87,13.87,0,0,1,101.49,149.33Z" style="fill:#fff"/><path d="M96.63,201.79q-.64,0-1.29-.06a13.87,13.87,0,0,1-12.53-15.09l2.6-28.16A13.87,13.87,0,0,1,113,161l-2.61,28.17A13.87,13.87,0,0,1,96.63,201.79Z" style="fill:#fff"/><path d="M96.19,180.4h-.11a7,7,0,0,1-6.83-7.2c.1-6.54-11-9.75-27.92-13.76C42.73,155,21.65,150,11.93,133.53c-5.7-9.65-6.5-22-2.4-36.76a6.93,6.93,0,1,1,13.36,3.7c-3.1,11.12-2.78,19.61,1,26,6.72,11.38,24.75,15.65,40.65,19.42,9.26,2.2,18,4.27,24.83,7.65,9.26,4.58,13.89,11.39,13.76,19.89A7.07,7.07,0,0,1,96.19,180.4Z" style="fill:#fff"/><path d="M95.19,147.94a6.93,6.93,0,0,1-6.76-5.46c-1.46-6.71-15.9-11.71-28.64-16.13-17.61-6.1-37.57-13-44.1-29.11C12,88,13.23,77.05,19.49,64.62a6.93,6.93,0,1,1,12.38,6.23C27.43,79.68,26.34,86.6,28.54,92c4.17,10.26,21,16.09,35.79,21.22,17.76,6.15,34.53,12,37.65,26.28a6.94,6.94,0,0,1-6.79,8.41Z" style="fill:#fff"/><path d="M94.17,200.69c-.21,0-.43,0-.64,0a6.93,6.93,0,0,1-6.3-6.87c-2.93-1.87-13.83-2.91-21.18-3.62-20.25-1.94-45.45-4.36-57.57-21.7-7-10-8.37-23.6-4-40.33a6.93,6.93,0,0,1,13.42,3.49c-3.29,12.62-2.63,22.34,1.95,28.89C28.3,172.62,50,174.7,67.38,176.37c8.33.8,15.52,1.49,21.15,3.13,11.79,3.45,12.92,10.82,12.54,14.9A6.94,6.94,0,0,1,94.17,200.69Z" style="fill:#fff"/><path d="M96.39,120a6.93,6.93,0,0,1-6.75-5.38c-3-13.16-18.43-20-33.34-26.53C40.76,81.27,24.7,74.18,25.46,58.46A30.13,30.13,0,0,1,42.87,32.75C54.69,27.4,76.26,27,111.94,55.31a6.93,6.93,0,1,1-8.62,10.85C71.52,40.91,55.39,42.3,48.6,45.38c-7,3.16-9.12,10.13-9.29,13.75C39,65.34,50.13,70.24,61.9,75.44c16.34,7.21,36.67,16.18,41.26,36.12A7,7,0,0,1,96.39,120Z" style="fill:#fff"/><path d="M40.12,219.34c-8.7,0-17.44-1.92-24.75-7.88-11.12-9-16.12-25-15.28-48.7a6.93,6.93,0,1,1,13.86.48c-.67,18.83,2.76,31.43,10.17,37.47,10,8.15,26.94,4,39.3,1,3.43-.84,6.39-1.56,9-2a6.93,6.93,0,1,1,2.17,13.69c-2,.32-4.72,1-7.86,1.75C59.21,217,49.69,219.34,40.12,219.34Z" style="fill:#fff"/><path d="M99.64,180.38a6.73,6.73,0,0,1-1.18-.11,6.92,6.92,0,0,1-5.66-8c1.44-8.38,7.21-14.05,17.15-16.86,7.33-2.07,16.3-2.5,25.81-3,16.32-.79,34.83-1.68,43.52-11.63,4.86-5.57,6.74-13.86,5.74-25.35a6.93,6.93,0,0,1,13.81-1.21c1.33,15.24-1.74,27.24-9.1,35.68-12.58,14.4-34.22,15.44-53.31,16.36-17.38.84-28.85,1.87-30,8.31A6.94,6.94,0,0,1,99.64,180.38Z" style="fill:#fff"/><path d="M106.49,149a6.93,6.93,0,0,1-6.39-9.62c5.69-13.5,23.24-16.14,41.83-18.93,15.51-2.33,33.1-5,39.08-14.3,3.15-4.93,3.35-11.93.61-21.42a6.93,6.93,0,0,1,13.32-3.86c3.86,13.37,3.11,24.39-2.26,32.76-9.38,14.63-30.26,17.77-48.7,20.53-13.33,2-28.44,4.27-31.1,10.6A6.94,6.94,0,0,1,106.49,149Z" style="fill:#fff"/><path d="M97.83,201l-.64,0a6.94,6.94,0,0,1-6.27-7.54c.38-4.08,2.84-11.11,15.07-12.34,5.83-.59,13,0,21.36.8,17.42,1.55,39.11,3.48,49.64-6.86,5.71-5.59,8.14-15,7.22-28a6.93,6.93,0,1,1,13.83-1c1.21,17.25-2.6,30.34-11.34,38.91-15.1,14.82-40.32,12.58-60.58,10.77-7.35-.66-18.25-1.63-21.48-.33A7,7,0,0,1,97.83,201Z" style="fill:#fff"/><path d="M110.43,121.34a6.74,6.74,0,0,1-2.76-.58,6.93,6.93,0,0,1-3.6-9.12c8.16-18.76,29.8-23.85,47.19-27.93,12.52-2.95,24.36-5.73,25.2-11.89.49-3.59-.35-10.84-6.61-15.22C163.74,52.33,148.13,48,112.24,67a6.93,6.93,0,0,1-6.48-12.26c40.28-21.31,61.4-16.92,72-9.49,11,7.67,13.55,20.13,12.41,28.46C188.06,89.3,171,93.32,154.43,97.2c-15.86,3.73-32.25,7.59-37.64,20A7,7,0,0,1,110.43,121.34Z" style="fill:#fff"/><path d="M155.3,230c-12.6,0-25.14-5.67-34.42-9.86-2.93-1.32-5.47-2.47-7.4-3.16A6.93,6.93,0,0,1,118.12,204c2.48.88,5.25,2.13,8.47,3.59,11.59,5.24,27.47,12.41,38.82,6.23,8.39-4.57,14.07-16.33,16.87-35A6.93,6.93,0,0,1,196,180.88c-3.53,23.48-11.36,38.23-24,45.08A34.45,34.45,0,0,1,155.3,230Z" style="fill:#fff"/><path d="M106.6,273.59a8.32,8.32,0,0,1-8-6c-.68-2.34-3.07-10.87-5.43-22.2A8.32,8.32,0,0,1,109.47,242c2.24,10.75,4.49,18.76,5.12,21a8.32,8.32,0,0,1-5.68,10.31A8.43,8.43,0,0,1,106.6,273.59Zm-9-43.48a8.31,8.31,0,0,1-8.24-7.27,187.57,187.57,0,0,1-1.61-23.14,8.29,8.29,0,0,1,8.3-8.3h0a8.3,8.3,0,0,1,8.32,8.28,170.24,170.24,0,0,0,1.47,21.09,8.3,8.3,0,0,1-7.21,9.28A7.4,7.4,0,0,1,97.61,230.11Z" style="fill:#fff"/><path d="M109.62,77.36a8.32,8.32,0,0,1-8.31-8,110,110,0,0,1,.33-12.07,8.32,8.32,0,0,1,16.6,1.24,93.87,93.87,0,0,0-.3,10.11,8.34,8.34,0,0,1-8,8.66Z" style="fill:#fff"/><path d="M111.64,52.72a8,8,0,0,1-1.45-.13A8.31,8.31,0,0,1,103.44,43a136,136,0,0,1,3.27-14.19,8.32,8.32,0,1,1,16,4.63,118.32,118.32,0,0,0-2.86,12.44A8.32,8.32,0,0,1,111.64,52.72Z" style="fill:#fff"/><path d="M119.3,26.54a8.21,8.21,0,0,1-3.3-.69,8.32,8.32,0,0,1-4.33-10.94,100,100,0,0,1,5.46-10.8,8.32,8.32,0,1,1,14.35,8.42,82.1,82.1,0,0,0-4.54,9A8.32,8.32,0,0,1,119.3,26.54Z" style="fill:#fff"/></g></g></svg>