<svg xmlns="http://www.w3.org/2000/svg" viewBox="0 0 48.04 217.92"><g id="Layer_2" data-name="Layer 2"><g id="Ñëîé_1" data-name="Ñëîé 1"><path d="M35.45,196.7c-2.73,9.86-12.23,17.78-14.35,19.44a8.32,8.32,0,1,1-10.29-13.07c4-3.21,8.62-8.74,8.73-11.52.76-19.23-4.61-52.84-9.81-85.36C6.31,84.78,2.77,62.64,1.09,45-1.09,22.23,0,10.23,4.66,3.53a8.32,8.32,0,0,1,13.61,9.58c-.52.77-3,5.85-.6,30.5,1.65,17.11,5.13,38.89,8.49,60,5.32,33.31,10.83,67.76,10,88.64A19.93,19.93,0,0,1,35.45,196.7Z" style="fill:#fff"/><path d="M48,202.11l-.18-.09-7.07,15.07c-1.85-.87-18.16-9.31-21.44-38.08a8.32,8.32,0,0,1,16.54-1.88C38.1,196.59,47.64,201.9,48,202.11Z" style="fill:#fff"/><path d="M30.58,26.54a16.9,16.9,0,0,0-7.12,2.78c-4,2.84-5.86,7.42-5.55,14a8.32,8.32,0,0,1-16.62.77c-.58-12.62,4.19-22.9,13.45-29A33.39,33.39,0,0,1,29.14,10l1.35,16.58Z" style="fill:#fff"/></g></g></svg>