<svg xmlns="http://www.w3.org/2000/svg" viewBox="0 0 74.65 258.3"><g id="Layer_2" data-name="Layer 2"><g id="Ñëîé_1" data-name="Ñëîé 1"><path d="M21.61,1.3A5.7,5.7,0,0,1,23.23.39,6.1,6.1,0,0,1,31.08,4,554.06,554.06,0,0,1,47.8,59.35C58.3,101.69,62,137,58.65,164.34a6.1,6.1,0,1,1-12.11-1.46C54,101,20,9.16,19.65,8.24A6.1,6.1,0,0,1,21.61,1.3Z" style="fill:#fff"/><path d="M2.41,9.58l8.68,4.93.06-.11c0,.07-3.45,7.12,1.7,21.39C19,52.7,55.85,161.06,56.22,162.15a5,5,0,1,1-9.45,3.22C46.4,164.28,9.54,56,3.46,39.18-3.29,20.5,1.8,10.64,2.41,9.58Z" style="fill:#fff"/><path d="M25.75,206.09c1.22,10.1,8.19,13.73,24.58,14.66,23.09,1.3,23.71-3.88,24.29-14S68.14,179.27,53.85,177C27.64,172.87,24.69,197.23,25.75,206.09Z" style="fill:#fff"/><path d="M32.5,222a3.32,3.32,0,0,1,5.37,2.51,193.4,193.4,0,0,1-1.74,30.94,3.33,3.33,0,0,1-6.59-1,189.71,189.71,0,0,0,1.68-29.73A3.31,3.31,0,0,1,32.5,222Z" style="fill:#fff"/><path d="M68.3,195.94a2.22,2.22,0,0,1,1.47-.38,3.09,3.09,0,0,1,2.68,2.89A156.73,156.73,0,0,1,71.6,223a2.19,2.19,0,0,1-2.85,1.87,3.11,3.11,0,0,1-2.2-3.28A155.6,155.6,0,0,0,67.37,198,2.31,2.31,0,0,1,68.3,195.94Z" style="fill:#fff"/><path d="M71.14,224.24a2.59,2.59,0,0,1-1.46,1,3.52,3.52,0,0,1-4-2.14,178.93,178.93,0,0,1-8-26.86,2.56,2.56,0,0,1,3-3.07,3.68,3.68,0,0,1,3,2.91,177.41,177.41,0,0,0,7.64,25.63A2.66,2.66,0,0,1,71.14,224.24Z" style="fill:#fff"/><path d="M62.43,198A2.19,2.19,0,0,1,64,198a3.11,3.11,0,0,1,2,3.4,159.09,159.09,0,0,1-6.14,23.76,2.2,2.2,0,0,1-3.2,1.21,3.12,3.12,0,0,1-1.43-3.68,154.86,154.86,0,0,0,5.9-22.83A2.33,2.33,0,0,1,62.43,198Z" style="fill:#fff"/><path d="M58.39,226.15a2.58,2.58,0,0,1-1.6.69,3.51,3.51,0,0,1-3.51-2.8,180,180,0,0,1-3.14-27.85,2.56,2.56,0,0,1,3.46-2.5,3.69,3.69,0,0,1,2.49,3.4,179.44,179.44,0,0,0,3,26.57A2.65,2.65,0,0,1,58.39,226.15Z" style="fill:#fff"/><path d="M50.43,200A2.19,2.19,0,0,1,52,200a3.11,3.11,0,0,1,2,3.4,159.09,159.09,0,0,1-6.14,23.76,2.2,2.2,0,0,1-3.2,1.21,3.12,3.12,0,0,1-1.43-3.68,154.86,154.86,0,0,0,5.9-22.83A2.33,2.33,0,0,1,50.43,200Z" style="fill:#fff"/><path d="M46.39,228.15a2.58,2.58,0,0,1-1.6.69,3.51,3.51,0,0,1-3.51-2.8,180,180,0,0,1-3.14-27.85,2.56,2.56,0,0,1,3.46-2.5,3.69,3.69,0,0,1,2.49,3.4,179.44,179.44,0,0,0,3,26.57A2.65,2.65,0,0,1,46.39,228.15Z" style="fill:#fff"/><path d="M25.44,198.17A3.32,3.32,0,0,1,29,197.8c1.65.81.51,2.92,1.52,4.46,3.17,4.83.87,6.35-1.83,10.83-3,5-5.2,9.35-5.19,9.46a3.33,3.33,0,0,1-6.65.25c0-.51.92-5.61,1.84-6.71,3.74-4.42,1-14,5.86-16.78C25,199.06,25.06,198.46,25.44,198.17Z" style="fill:#fff"/></g></g></svg>