<svg xmlns="http://www.w3.org/2000/svg" viewBox="0 0 205.12 101.69"><g id="Layer_2" data-name="Layer 2"><g id="Ñëîé_1" data-name="Ñëîé 1"><path d="M25.82,81.79c-10.06,0-19.76-4.47-21.09-5.1a8.32,8.32,0,0,1,7.18-15c3.47,1.64,12.23,4.56,17,3.09C49.66,58.38,77.62,45.49,104.65,33,152.43,11,182.51-2.38,198.22.35a8.32,8.32,0,1,1-2.85,16.39c-2.62-.45-10.11,0-30.8,8.06-15.42,6-33.65,14.43-52.95,23.33C84.09,60.82,55.62,74,33.82,80.67A27.13,27.13,0,0,1,25.82,81.79Z" style="fill:#fff"/><path d="M17.3,101.69a8,8,0,0,1-1-.06A8.32,8.32,0,0,1,9,92.41c.25-2.1,3.24-20.8,32.76-32.12a8.32,8.32,0,1,1,6,15.53C28,83.4,25.57,94.23,25.56,94.33A8.33,8.33,0,0,1,17.3,101.69Z" style="fill:#fff"/><path d="M192.48,38.65a8.33,8.33,0,0,1-7.6-4.93c-2.71-6-8.33-13-10.81-12.18a8.32,8.32,0,1,1-5-15.87c4.78-1.51,14.24-2.25,23.85,9.68A57.09,57.09,0,0,1,200.08,27a8.33,8.33,0,0,1-7.6,11.69Z" style="fill:#fff"/></g></g></svg>