<svg xmlns="http://www.w3.org/2000/svg" viewBox="0 0 104.08 294.69"><g id="Layer_2" data-name="Layer 2"><g id="Ñëîé_1" data-name="Ñëîé 1"><path d="M70.8,195.83a8.32,8.32,0,0,1-2.55-7.18c7-51.45,1.27-87.42-2.89-113.69C62.7,58.18,60.6,44.92,62.43,33,64.86,17.15,79.34,3.64,81,2.15A8.32,8.32,0,0,1,92.16,14.47c-3.25,3-12,12.56-13.29,21.08-1.43,9.33.49,21.46,2.92,36.81C86.11,99.65,92,137,84.74,190.88a8.32,8.32,0,0,1-13.94,5Z" style="fill:#fff"/><path d="M73.87,195.28A6.11,6.11,0,0,1,72.22,189c.2-.65,20.24-66.42,19.64-157.51a6.11,6.11,0,0,1,12.21-.08c.61,93.1-19.35,158.47-20.2,161.21a6.1,6.1,0,0,1-10,2.64Z" style="fill:#fff"/><path d="M90.24,234C93,240.82,82,245.4,75.33,246.86s-34-9.67-36.79-16.44c-1.27-3.11,7.5-9.5,14.16-11S87.46,227.26,90.24,234Z" style="fill:#fff"/><path d="M22.57,293.18a5.7,5.7,0,0,1-.88-1.06,5.56,5.56,0,0,1,1.7-7.66c.06,0,6.25-4,9.45-6.39,2.63-2,4.94-5.27,7.62-9.09,4.24-6,9.53-13.57,18.89-19.83a5.55,5.55,0,0,1,6.16,9.23c-7.64,5.1-12.07,11.41-16,17-3.08,4.39-6,8.54-10,11.57-3.55,2.67-9.9,6.72-10.17,6.89A5.55,5.55,0,0,1,22.57,293.18Z" style="fill:#fff"/><path d="M7.92,286.13a5.79,5.79,0,0,1-1-1.28,5.55,5.55,0,0,1,2-7.57c1.86-1.07,7.24-4.26,9.81-6.2,2.26-1.7,4.93-5.31,7.76-9.14,4.43-6,9.93-13.44,17.75-19.2a5.55,5.55,0,0,1,6.58,8.94c-6.47,4.76-11.22,11.18-15.41,16.85-3.47,4.69-6.46,8.74-10,11.41s-10.66,6.79-11,7A5.57,5.57,0,0,1,7.92,286.13Z" style="fill:#fff"/><path d="M2.17,280.35a5.33,5.33,0,0,1-1-1.19,5.55,5.55,0,0,1,1.91-7.61c.06,0,6.31-3.78,9.45-6.15,2.25-1.7,4.66-5,7.46-8.85C24,251.11,28.9,244.35,36,238.86a5.55,5.55,0,0,1,6.79,8.77C37,252.15,32.72,258,29,263.08c-3.32,4.55-6.18,8.49-9.76,11.18S9.09,280.9,8.82,281.07A5.55,5.55,0,0,1,2.17,280.35Z" style="fill:#fff"/><path d="M1.75,272.24a5.83,5.83,0,0,1-.69-.79,5.54,5.54,0,0,1,1.23-7.74c.06,0,5.84-4.25,8.77-6.46,1.91-1.43,4.18-4.57,6.58-7.9,3.29-4.55,7-9.7,12.18-14.29a5.55,5.55,0,1,1,7.36,8.3c-4.25,3.78-7.6,8.41-10.55,12.49s-5.66,7.82-8.89,10.26c-3,2.27-8.69,6.4-8.93,6.57A5.55,5.55,0,0,1,1.75,272.24Z" style="fill:#fff"/><path d="M74.09,215.93c-2.3-2.16-4.41-5.6-5.45-11.08a61.16,61.16,0,0,1-.22-17.45A8.32,8.32,0,0,1,85,189.31c-.86,7.47-.2,12.2.44,14.07a8.32,8.32,0,0,1-3.77,16.09A13.23,13.23,0,0,1,74.09,215.93Z" style="fill:#fff"/><path d="M57.89,213.45a8.31,8.31,0,0,1,3.71-14.12c3.13-.78,6-5.39,6.63-10.51a8.32,8.32,0,1,1,16.53,1.9C83.58,201,77.19,212.6,65.6,215.48A8.31,8.31,0,0,1,57.89,213.45Z" style="fill:#fff"/></g></g></svg>