<svg xmlns="http://www.w3.org/2000/svg" viewBox="0 0 168.61 113.25"><g id="Layer_2" data-name="Layer 2"><g id="Ñëîé_1" data-name="Ñëîé 1"><path d="M164.17,12C158.06.76,131.24-3.29,123.71,2.89S96.49,32.11,96.49,32.11L84.86,28.4l-.55.18-.56-.18L72.12,32.11S52.43,9.07,44.9,2.89,10.54.76,4.44,12C-7.58,34.21,8.6,59.45,8.6,59.45l38.27,16s-9.42.4-10.22,4.92c-1.43,8-2.82,19.81.48,23.48,0,0,5.78,7.11,18,9.2s25-10,28.6-13.75l.56.53c0-.19.38-.37.55-.53C88.48,103,101.2,115.1,113.46,113s18-9.2,18-9.2c3.3-3.67,1.91-15.46.48-23.48-.81-4.52-10.22-4.92-10.22-4.92l38.27-16S176.18,34.21,164.17,12ZM51.59,96.49C47.3,92.39,48.39,76,48.39,76S69,84.3,68.82,86.84C68.47,93.49,60,104.48,51.59,96.49ZM70.53,72S36.57,54.83,35.85,47s6.65-17.92,18-9.4C72.66,51.82,70.53,72,70.53,72ZM117,96.49c-8.37,8-16.89-3-17.24-9.65C99.65,84.3,120.21,76,120.21,76S121.31,92.39,117,96.49ZM132.76,47C132,54.83,98.07,72,98.07,72S96,51.82,114.8,37.62C126.11,29.1,133.48,39.21,132.76,47Z" style="fill:#fff"/></g></g></svg>