<svg xmlns="http://www.w3.org/2000/svg" viewBox="0 0 56.59 217.48"><g id="Layer_2" data-name="Layer 2"><g id="Ñëîé_1" data-name="Ñëîé 1"><path d="M31.68,217.48a8.29,8.29,0,0,1-5.45-2c-2.33-2-14-12.75-13.89-24.63.18-20.89,7.34-55,14.25-88.06C31,81.87,35.5,60.28,38,43.27c3.56-24.52,1.35-29.71.87-30.5a8.32,8.32,0,1,1,14.05-8.9c4.39,6.91,4.85,19,1.58,41.56C51.93,63,47.33,84.94,42.88,106.17,36.13,138.39,29.14,171.71,29,191c0,3,4.73,9,8.16,11.92a8.32,8.32,0,0,1-5.46,14.61Z" style="fill:#fff"/><path d="M6.52,215.43.19,200.05l-.19.08c.41-.2,10.19-5,13.34-24.37a8.32,8.32,0,0,1,16.43,2.67C25.11,207,8.41,214.66,6.52,215.43Z" style="fill:#fff"/><path d="M46,52.08c-.26,0-.52,0-.79,0A8.32,8.32,0,0,1,37.74,43c.62-6.55-1-11.22-4.87-14.25a16.86,16.86,0,0,0-7-3.12H26l2.14-16.5A33.39,33.39,0,0,1,42.26,15c9,6.5,13.23,17,12.05,29.58A8.34,8.34,0,0,1,46,52.08Z" style="fill:#fff"/></g></g></svg>