<svg xmlns="http://www.w3.org/2000/svg" viewBox="0 0 86.48 299.74"><g id="Layer_2" data-name="Layer 2"><g id="Ñëîé_1" data-name="Ñëîé 1"><path d="M19.43,197.81a8.22,8.22,0,0,1-8.31-8C10.05,135.42,20.21,99,27.63,72.43c4.18-15,7.47-26.77,7.12-36.2C34.43,27.57,26.67,16.87,24,13.79A8.31,8.31,0,1,1,36.48,2.84c1.46,1.66,14.3,16.75,14.9,32.79.45,12-3.16,25-7.72,41.33-7.14,25.62-16.92,60.58-15.9,112.49a8.18,8.18,0,0,1-8.16,8.36Z" style="fill:#fff"/><path d="M17.77,196.71a6.1,6.1,0,0,1-6-5c-.53-2.82-12.86-70.05-1.59-162.46a6.11,6.11,0,0,1,12.12,1.48c-11,90.41,1.33,158.05,1.46,158.72a6.1,6.1,0,0,1-4.87,7.12A5.48,5.48,0,0,1,17.77,196.71Z" style="fill:#fff"/><path d="M.71,232.14c-3.53,6.41,6.89,12.23,13.34,14.44s34.9-5.7,38.43-12.12c1.63-2.94-6.36-10.29-12.81-12.5S4.25,225.72.71,232.14Z" style="fill:#fff"/><path d="M57.84,299.74a5.54,5.54,0,0,1-3.49-1.24c-.25-.2-6.09-4.95-9.31-8-3.65-3.47-6.07-7.93-8.63-12.64-3.24-6-6.92-12.76-13.92-18.7a5.54,5.54,0,0,1,7.17-8.46c8.59,7.29,13,15.37,16.5,21.87,2.23,4.09,4.14,7.63,6.52,9.89,2.91,2.76,8.6,7.39,8.66,7.44a5.55,5.55,0,0,1-3.5,9.85Z" style="fill:#fff"/><path d="M73.2,294.42a5.58,5.58,0,0,1-3.3-1.09c-.27-.2-6.77-5-10.08-8.17s-5.73-7.42-8.63-12.48c-3.52-6.11-7.5-13-13.38-18.51a5.55,5.55,0,0,1,7.56-8.12c7.1,6.62,11.72,14.65,15.43,21.11,2.38,4.12,4.61,8,6.66,10,2.34,2.22,7.32,6,9,7.28a5.55,5.55,0,0,1-3.3,10Z" style="fill:#fff"/><path d="M79.58,289.34a5.52,5.52,0,0,1-3.37-1.15c-.26-.2-6.3-4.84-9.58-8S61,272.91,58.22,268c-3.11-5.52-6.64-11.77-11.91-16.92a5.54,5.54,0,1,1,7.75-7.93c6.4,6.26,10.51,13.54,13.82,19.4,2.34,4.13,4.35,7.7,6.4,9.65,2.85,2.71,8.62,7.14,8.68,7.19a5.55,5.55,0,0,1-3.38,9.95Z" style="fill:#fff"/><path d="M80.93,281.32a5.56,5.56,0,0,1-3.75-1.46c-.22-.2-5.38-4.95-8.12-7.55-2.94-2.8-5.12-6.7-7.66-11.22s-5.26-9.37-9-13.62a5.55,5.55,0,1,1,8.27-7.39c4.6,5.15,7.71,10.7,10.46,15.59,2,3.58,3.9,7,5.63,8.6,2.66,2.54,7.92,7.37,8,7.42a5.54,5.54,0,0,1-3.75,9.63Z" style="fill:#fff"/><path d="M11,218.65A8.32,8.32,0,0,1,9,202.23c.85-1.78,2.05-6.4,2.05-13.92a8.32,8.32,0,0,1,16.64,0C27.73,215.7,16,218.65,11,218.65Z" style="fill:#fff"/><path d="M30.23,217.05a8.31,8.31,0,0,1-2.92-.53c-11.18-4.18-16.19-16.46-16.19-26.79a8.32,8.32,0,0,1,16.64,0c0,5.16,2.36,10.08,5.38,11.21a8.32,8.32,0,0,1-2.91,16.11Z" style="fill:#fff"/></g></g></svg>