<svg xmlns="http://www.w3.org/2000/svg" viewBox="0 0 196.35 114.56"><g id="Layer_2" data-name="Layer 2"><g id="Ñëîé_1" data-name="Ñëîé 1"><path d="M173.79,102.09a30.75,30.75,0,0,1-12.47-2.35C140.5,90.42,113.84,73.93,88.05,58,70,46.8,52.9,36.24,38.33,28.39,18.78,17.86,11.4,16.5,8.74,16.64A8.32,8.32,0,1,1,7.9,0c15.93-.8,44.16,16.12,88.9,43.8,25.32,15.66,51.51,31.85,71.32,40.72,4.58,2,13.77.17,17.26-1a8.32,8.32,0,0,1,5.3,15.77A57.67,57.67,0,0,1,173.79,102.09Z" style="fill:#fff"/><path d="M167.86,114.56c0-.46-.88-11.29-19.78-21.33a8.32,8.32,0,1,1,7.81-14.69c27.92,14.83,28.62,33.75,28.61,35.86l-16.64-.1A1.71,1.71,0,0,0,167.86,114.56Z" style="fill:#fff"/><path d="M10,38.8A8.32,8.32,0,0,1,2.82,26.21a57.48,57.48,0,0,1,8.5-10.65c11-10.68,20.29-8.79,24.86-6.72A8.32,8.32,0,0,1,29.3,24C27,22.93,20.45,29.16,17.1,34.75A8.31,8.31,0,0,1,10,38.8Z" style="fill:#fff"/></g></g></svg>