<svg xmlns="http://www.w3.org/2000/svg" viewBox="0 0 193.01 209.85"><g id="Layer_2" data-name="Layer 2"><g id="Ñëîé_1" data-name="Ñëîé 1"><path d="M85.43,144.71A6.1,6.1,0,0,1,82,133.54c51.72-34.75,99.06-120.49,99.54-121.35A6.1,6.1,0,1,1,192.26,18a552.61,552.61,0,0,1-31,48.84c-25.21,35.61-49.57,61.44-72.41,76.79A6.11,6.11,0,0,1,85.43,144.71Z" style="fill:#fff"/><path d="M84.59,142.87a5,5,0,0,1-4.3-7.52c.58-1,58.49-99.62,67.26-115.22C157.29,2.82,168.08.24,169.28,0l1.94,9.79.11,0c-.07,0-7.64,2-15.08,15.26C147.44,40.7,89.48,139.41,88.89,140.4A5,5,0,0,1,84.59,142.87Z" style="fill:#fff"/><path d="M35.72,146c-6.85,7.52-5,15.17,5,28.19,14.1,18.34,18.43,15.42,26.49,9.22s16.56-22.82,8.93-35.12C62.11,125.76,41.73,139.43,35.72,146Z" style="fill:#fff"/><path d="M3.33,186.65a3.33,3.33,0,0,1-1.77-6.15,188.91,188.91,0,0,0,23.6-18.15,3.33,3.33,0,0,1,4.51,4.9A193.46,193.46,0,0,1,5.1,186.13,3.28,3.28,0,0,1,3.33,186.65Z" style="fill:#fff"/><path d="M10.81,195.75A3.33,3.33,0,0,1,9,189.6a190.94,190.94,0,0,0,23.61-18.14,3.33,3.33,0,0,1,4.51,4.89,194.09,194.09,0,0,1-24.57,18.89A3.38,3.38,0,0,1,10.81,195.75Z" style="fill:#fff"/><path d="M20.62,203.53a3.32,3.32,0,0,1-1.77-6.14,190.38,190.38,0,0,0,23.6-18.15A3.33,3.33,0,0,1,47,184.13,193.26,193.26,0,0,1,22.39,203,3.27,3.27,0,0,1,20.62,203.53Z" style="fill:#fff"/><path d="M31.71,209.85a3.32,3.32,0,0,1-1.77-6.14,188.91,188.91,0,0,0,23.6-18.15,3.33,3.33,0,0,1,4.51,4.9,192.63,192.63,0,0,1-24.57,18.88A3.27,3.27,0,0,1,31.71,209.85Z" style="fill:#fff"/><path d="M13.43,161.15A3.28,3.28,0,0,1,11,160.09a3.32,3.32,0,0,1,.16-4.7c.55-.51,13.71-12.61,36.24-18.44a3.33,3.33,0,1,1,1.67,6.44c-20.91,5.42-33.25,16.76-33.37,16.87A3.31,3.31,0,0,1,13.43,161.15Z" style="fill:#fff"/></g></g></svg>