<svg xmlns="http://www.w3.org/2000/svg" viewBox="0 0 189.06 132.09"><g id="Layer_2" data-name="Layer 2"><g id="Ñëîé_1" data-name="Ñëîé 1"><path d="M139.27,82.35c8.23-.58,24-16.68,24-16.68l-14-11.42-2-14.29L134.52,36s-.32,3.94-.73,7.2,6.4,6.49,6.4,6.49-12.07,16.08-28.71-.57c-6.39-6.39,10.37-25.21,10.37-25.21L100.23,3s-23-8.52-44,3.34S9,35.92,3.94,53.89s-7.55,34.51,7.3,54.38S67.71,135,75.44,131,92.31,107.73,106,93.89c8.11-8.22,6.27-20.47,6.27-20.47S131,82.93,139.27,82.35Z" style="fill:#fff"/><path d="M104.84,109c1.81,5,40.59,15.13,51.17,10.93s31.12-15.15,32.87-20.6-9.34-2-11.59-9.85-4.23-13-4.23-13-9.93,11.5-18.48,15.4-30.52-3.15-34.23-1.53-1.86,8.87-1.86,8.87S103,104,104.84,109Z" style="fill:#fff"/></g></g></svg>