<svg xmlns="http://www.w3.org/2000/svg" viewBox="0 0 180.77 135.12"><g id="Layer_2" data-name="Layer 2"><g id="Ñëîé_1" data-name="Ñëîé 1"><path d="M45,94.66C36.87,96,17.9,83.79,17.9,83.79L29,69.52,27.74,55.14l11.52-6.68s1.2,3.77,2.33,6.85-4.78,7.76-4.78,7.76,15.36,13,27.85-7c4.8-7.67-15.76-22.25-15.76-22.25L65.27,8.55S85.73-4.9,108.87,1.94s52.68,18.28,61.66,34.66,15.09,31.93,5.07,54.63-49,38.73-57.48,36.52S96.47,108.87,80.05,98.44c-9.75-6.18-10.7-18.53-10.7-18.53S53.17,93.38,45,94.66Z" style="fill:#fff"/><path d="M84.54,112.89C83.9,118.2,48.37,136.73,37.12,135S3.39,127.22.47,122.3s8.64-4.09,9.08-12.19,1.21-13.63,1.21-13.63,12.26,9,21.46,10.87,29-9.92,33-9.17,3.8,8.23,3.8,8.23S85.17,107.59,84.54,112.89Z" style="fill:#fff"/></g></g></svg>