<svg xmlns="http://www.w3.org/2000/svg" viewBox="0 0 131.91 184.93"><g id="Layer_2" data-name="Layer 2"><g id="Ñëîé_1" data-name="Ñëîé 1"><path d="M103.09,126.71S97,151.83,91.86,155.2c-4.23,2.8-18.59,4.07-23.31,4.42-4.73-.1-19.14-.63-23.51-3.21-5.25-3.1-12.68-27.88-12.68-27.88S20.47,129.9,24,140.09c3.68,10.72,13.08,35.62,16.5,38.44,3.19,2.64,20.76,6.37,27.92,6.38l.19,0,.62,0h.62a1.08,1.08,0,0,0,.19,0c7.15-.38,23.21-5,26.26-7.77,3.27-3,12.67-28.38,15.8-39.28C115,127.47,103.09,126.71,103.09,126.71Z" style="fill:#fff"/><path d="M131,42c-4.4-13.7-19.7-30.17-24.65-33.37S84.19-.46,65,0l-.33,0a1.76,1.76,0,0,0-.33,0C45.15.54,28.28,7.34,23.51,10.79S4.31,31.47.62,45.38s10.34,43.48,10.7,45-3,3.31-5.34,6,.13,13.62,5,17.81,27.9,11.15,27.9,11.15-.81,10.38,4.6,12.76c0,0,7.52,4.76,25.19,4.31s19.54-3.2,24.29-5.59c5.28-2.65,3.93-13,3.93-13s22.65-8.78,27.28-13.22,6.53-14.87,4.09-17.4-5.93-4.11-5.65-5.68S135.37,55.72,131,42ZM26.77,97.55C21,95.18,15.73,78.71,23.12,74,36,65.71,45,67.57,51.24,71.2s9.83,16,1.22,20.63S32.57,99.93,26.77,97.55ZM73.6,110.09c.09,3.6-2.63,4.29-6.28,4.39-2.91.07-6-.47-6.12-4.07,0,0,2.24-20.61,5.67-20.7S73.6,110.09,73.6,110.09Zm33.5-14.6c-5.67,2.67-17.11-.26-25.94-4.4s-5.94-16.72.15-20.67,15-4.87,28.27,2.72C117.2,77.49,112.78,92.81,107.1,95.49Z" style="fill:#fff"/></g></g></svg>